<svg id="visual" viewBox="0 0 900 600" width="900" height="600" xmlns="http://www.w3.org/2000/svg" xmlns:xlink="http://www.w3.org/1999/xlink" version="1.1"><rect x="0" y="0" width="900" height="600" fill="#001220"></rect><defs><linearGradient id="grad1_0" x1="33.3%" y1="0%" x2="100%" y2="100%"><stop offset="20%" stop-color="#001220" stop-opacity="1"></stop><stop offset="80%" stop-color="#001220" stop-opacity="1"></stop></linearGradient></defs><defs><linearGradient id="grad2_0" x1="0%" y1="0%" x2="66.7%" y2="100%"><stop offset="20%" stop-color="#001220" stop-opacity="1"></stop><stop offset="80%" stop-color="#001220" stop-opacity="1"></stop></linearGradient></defs><g transform="translate(900, 0)"><path d="M0 486.7C-58.4 454.9 -116.7 423.1 -161.1 389C-205.5 354.8 -235.9 318.2 -287.8 287.8C-339.7 257.4 -413 233.2 -449.7 186.3C-486.4 139.3 -486.6 69.7 -486.7 0L0 0Z" fill="#216ce7"></path></g><g transform="translate(0, 600)"><path d="M0 -486.7C70.2 -487.2 140.4 -487.6 186.3 -449.7C232.2 -411.8 253.9 -335.7 283.5 -283.5C313.2 -231.4 351 -203.2 386.2 -160C421.4 -116.7 454.1 -58.3 486.7 0L0 0Z" fill="#216ce7"></path></g></svg>